<?xml version="1.0" encoding="UTF-8" standalone="no"?>
<!-- Created with Inkscape (http://www.inkscape.org/) -->

<svg
   width="172.91078mm"
   height="33.650791mm"
   viewBox="0 0 172.91078 33.650791"
   version="1.1"
   id="svg314"
   xmlns="http://www.w3.org/2000/svg"
   xmlns:svg="http://www.w3.org/2000/svg">
  <g
     inkscape:label="Layer 1"
     inkscape:groupmode="layer"
     id="layer1"
     transform="translate(-21.191989,-109.59331)">
    <g
       id="g10"
       transform="matrix(0.26458333,0,0,0.26458333,-11.881036,51.500909)"
       style="fill:#06172a;fill-opacity:1">
      <path
         id="rect4"
         d="m 130.6081,219.56183 c -3.10639,0 -5.60769,2.26941 -5.60769,5.0878 v 117.01005 c 0,2.81839 2.5013,5.08625 5.60769,5.08625 h 128.96497 c 3.10639,0 5.60769,-2.26786 5.60769,-5.08625 V 224.64963 c 0,-2.81839 -2.5013,-5.0878 -5.60769,-5.0878 z m 5.04096,34.97687 h 6.66456 l 24.61768,49.7307 24.69085,-49.7307 h 6.66456 l 2.30775,57.23191 h -6.39226 l -1.95035,-45.2976 -22.65541,45.2976 h -5.77618 l -22.30993,-45.14164 -2.22095,45.14164 h -6.39225 z m 79.0744,0 h 16.43674 c 8.82706,0 15.26746,1.30168 19.32313,3.90656 4.05568,2.60488 6.08422,6.35555 6.08422,11.25183 0,3.00792 -0.91742,5.66584 -2.75194,7.97216 -1.83451,2.31379 -4.50085,4.00683 -7.99712,5.08162 3.55386,0.9703 6.35547,2.64996 8.40387,5.03839 2.04018,2.38843 3.05998,5.14257 3.05998,8.26246 0,5.10526 -1.8788,9.00182 -5.63832,11.6888 -3.75953,2.68699 -8.8693,4.03009 -15.32713,4.03009 h -21.59343 z m 6.74965,5.16037 v 20.63375 h 11.37706 c 5.62694,0 9.8468,-0.84729 12.66027,-2.54158 2.81348,-1.69429 4.22066,-4.36559 4.22066,-8.0154 0,-3.54533 -1.48035,-6.1137 -4.4419,-7.7035 -2.96155,-1.58233 -7.67118,-2.37327 -14.129,-2.37327 z m 0,25.87287 v 21.03831 h 14.57319 c 4.44232,0 7.95122,-0.81745 10.52612,-2.45203 2.58312,-1.64204 3.87347,-4.29173 3.87347,-7.94901 0,-7.09064 -5.0678,-10.63727 -15.20288,-10.63727 z"
         style="fill:#06172a;fill-opacity:1;stroke-width:0.400572" />
      <path
         d="m 306.29205,311.15446 h -6.06684 l 2.61178,-54.32116 h 6.32451 l 23.36552,47.2016 23.43579,-47.2016 h 6.3245 l 2.19015,54.32116 h -6.06684 l -1.85049,-42.99363 -21.50331,42.99363 h -5.48124 L 308.40021,268.3096 Z m 83.57711,0.61632 v 0 q -6.3245,0 -9.69756,-3.98483 -3.37307,-3.9742 -3.37307,-11.01937 v 0 l 0.24595,-23.63268 h 6.16053 l -0.25766,22.9526 q -0.082,4.97307 1.9442,7.72525 2.02618,2.75219 6.40648,2.75219 v 0 q 4.29832,0 7.58941,-3.13473 3.29108,-3.13473 5.18843,-10.44556 1.89735,-7.31083 1.97934,-19.84975 v 0 h 5.90286 v 38.02056 h -6.24251 l 0.50361,-12.47516 q -2.35412,6.73701 -6.65243,9.91424 -4.31004,3.17724 -9.69758,3.17724 z m 48.23018,0 v 0 q -7.84706,0 -12.14538,-2.95409 -4.29832,-2.94345 -4.97762,-8.37344 v 0 l 5.39925,-1.14763 q 0.59732,4.0592 3.41992,5.97192 2.8226,1.91272 8.30383,1.91272 v 0 q 4.63797,0 7.03896,-1.72145 2.40095,-1.72144 2.40095,-4.48425 v 0 q 0,-2.5928 -2.43611,-3.85732 -2.44779,-1.26452 -7.6831,-2.17837 v 0 q -4.3803,-0.76509 -7.4957,-1.95522 -3.12711,-1.19014 -4.81364,-3.326 -1.68654,-2.1465 -1.68654,-5.73815 v 0 q 0,-3.21975 1.9442,-5.81254 1.93248,-2.60342 5.3524,-4.10172 3.41992,-1.48766 7.71825,-1.48766 v 0 q 5.90287,0 9.65069,2.56091 3.75958,2.56092 4.60285,7.07706 v 0 l -5.23526,1.22201 q -1.2649,-6.26946 -9.10029,-6.26946 v 0 q -4.05236,0 -6.45332,1.79582 -2.40097,1.79583 -2.40097,4.85618 v 0 q 0,2.52904 2.10817,4.01671 2.10816,1.49829 7.58939,2.57154 v 0 q 4.46231,0.83947 7.67141,1.9446 3.19737,1.11575 4.93076,3.02847 1.73338,1.91271 1.81534,5.27059 v 0 q 0,3.21974 -1.9442,5.73815 -1.93246,2.52904 -5.43435,3.98483 -3.50192,1.45579 -8.13989,1.45579 z m 24.61872,-38.63688 h 6.07854 v 38.02056 h -6.07854 z m 3.20911,-8.64973 v 0 q -2.02621,0 -3.11541,-1.14764 -1.10093,-1.14763 -1.10093,-2.6778 v 0 q 0,-1.53017 1.13605,-2.6778 1.13609,-1.14763 3.08029,-1.14763 v 0 q 1.9442,0 3.08024,1.14763 1.13609,1.14763 1.13609,2.6778 v 0 q 0,1.53017 -1.13609,2.6778 -1.13604,1.14764 -3.08024,1.14764 z m 33.30902,47.28661 v 0 q -9.19394,0 -14.41751,-5.01557 -5.23531,-5.01557 -5.23531,-13.96283 v 0 q 0,-6.04631 2.6235,-10.63683 2.61181,-4.59052 7.24978,-7.15144 4.63797,-2.56091 10.78677,-2.56091 v 0 q 10.11921,0 14.85088,7.3427 v 0 l -4.73167,3.20912 q -3.37307,-5.42999 -10.28317,-5.42999 v 0 q -6.32451,0 -10.16606,4.17609 -3.82982,4.16548 -3.82982,11.05126 v 0 q 0,6.73701 3.45503,10.25428 3.45508,3.51728 9.95524,3.51728 v 0 q 3.45508,0 6.32451,-1.2964 2.85774,-1.30702 4.71993,-4.13359 v 0 l 4.55601,3.20911 q -5.0596,7.42772 -15.85811,7.42772 z m 63.58468,-0.61632 H 542.32479 V 256.8333 h 15.60045 q 12.56701,0 18.34102,3.70854 5.77406,3.70855 5.77406,10.67934 v 0 q 0,4.28236 -2.6118,7.56586 -2.61177,3.29412 -7.58941,4.8243 v 0 q 5.0596,1.3814 7.97593,4.78179 2.90458,3.40038 2.90458,7.84214 v 0 q 0,7.26832 -5.35242,11.09375 -5.35239,3.82544 -14.54633,3.82544 z m -4.89563,-49.42248 v 0 h -9.19398 v 19.5841 h 10.79851 q 8.01104,0 12.01656,-2.41216 4.00552,-2.41214 4.00552,-7.60836 v 0 q 0,-5.04744 -4.21634,-7.31083 -4.21633,-2.25275 -13.41027,-2.25275 z m -9.19398,24.55716 v 19.96664 h 13.83195 q 6.32451,0 9.99036,-2.32714 3.67758,-2.33777 3.67758,-7.54461 v 0 q 0,-10.09489 -14.42924,-10.09489 v 0 z m 44.52921,-13.15524 h 6.06684 v 38.02056 h -6.06684 z m 3.2091,-8.64973 v 0 q -2.02621,0 -3.12714,-1.14764 -1.0892,-1.14763 -1.0892,-2.6778 v 0 q 0,-1.53017 1.13605,-2.6778 1.13609,-1.14763 3.08029,-1.14763 v 0 q 1.93246,0 3.06855,1.14763 1.14778,1.14763 1.14778,2.6778 v 0 q 0,1.53017 -1.14778,2.6778 -1.13609,1.14764 -3.06855,1.14764 z m 21.58528,46.67029 h -6.07857 V 273.1339 h 6.24254 l -0.50364,13.00647 q 2.10817,-6.66263 6.53532,-10.1799 4.42716,-3.51727 10.41199,-3.51727 v 0 q 6.40651,0 9.87328,4.04858 3.45503,4.05921 3.45503,11.71008 v 0 l -0.17566,22.9526 h -6.14884 l 0.16397,-22.2619 q 0,-5.58938 -2.06132,-8.41596 -2.07302,-2.83719 -6.61729,-2.83719 v 0 q -4.31003,0 -7.71822,3.10285 -3.41992,3.10285 -5.39927,10.44556 -1.97932,7.34271 -1.97932,19.96664 z m 71.84166,-56.61642 h 6.1605 v 56.61642 h -6.2425 l 0.25766,-8.94727 q -2.36583,4.43113 -6.32451,6.99205 -3.97036,2.57154 -9.02996,2.57154 v 0 q -5.30558,0 -8.93632,-2.26338 -3.63069,-2.25276 -5.5632,-6.26946 -1.9442,-4.01671 -1.9442,-9.29793 v 0 q 0,-6.35447 2.5298,-11.21065 2.52981,-4.85617 7.08577,-7.57648 4.55601,-2.70968 10.54084,-2.70968 v 0 q 3.79471,0 6.875,1.45578 3.08025,1.44517 4.76678,3.97421 v 0 l -0.17566,-4.73929 z m -11.30215,22.9526 v 0 q -6.3245,0 -10.11921,4.35675 -3.79466,4.36737 -3.79466,11.63569 v 0 q 0,6.19508 2.91628,9.68047 2.90459,3.47477 7.96419,3.47477 v 0 q 4.13434,0 7.42544,-2.22087 3.29107,-2.21026 5.14157,-6.1207 1.8505,-3.89981 1.8505,-8.94726 v 0 q 0,-5.50438 -3.0334,-8.68161 -3.03344,-3.17724 -8.35071,-3.17724 z m 49.00317,34.28014 v 0 q -9.69753,0 -15.22562,-5.05807 -5.52809,-5.04745 -5.52809,-14.0691 v 0 q 0,-5.89754 2.6235,-10.48806 2.61177,-4.59052 7.12093,-7.15144 4.50911,-2.56091 10.24802,-2.56091 v 0 q 8.59664,0 13.28146,5.42999 4.67309,5.42999 3.32622,16.21559 v 0 h -30.27562 q 0.25766,6.12069 4.09922,9.34043 3.82981,3.20911 10.75161,3.20911 v 0 q 3.37307,0 6.48848,-1.3389 3.1154,-1.3389 5.31727,-4.16547 v 0 l 3.87671,3.20911 q -5.65694,7.42772 -16.10409,7.42772 z m -0.6793,-34.81145 v 0 q -3.87667,0 -6.79294,1.67894 -2.90459,1.67894 -4.67313,4.54802 -1.7685,2.86907 -2.19013,6.39697 v 0 h 24.78265 q 0.33967,-6.66263 -2.85774,-9.64859 -3.2091,-2.97534 -8.26871,-2.97534 z m 51.60328,-3.98482 -0.92527,5.42999 q -0.84327,-0.22315 -1.68653,-0.29754 -0.84327,-0.085 -1.85051,-0.085 v 0 q -7.34343,0 -10.7165,7.84214 -3.37307,7.84214 -3.37307,25.29037 v 0 h -6.06684 v -24.40839 l -0.082,-13.61217 h 6.1488 l -0.42163,13.53778 q 2.02616,-7.72525 6.07853,-10.97687 4.04068,-3.25161 8.67865,-3.25161 v 0 q 1.35859,0 2.41268,0.11688 1.05408,0.10627 1.80365,0.41443 z"
         fill="#0f172a"
         id="path8"
         style="fill:#06172a;fill-opacity:1;stroke:none;stroke-width:0.400572;stroke-opacity:1" />
    </g>
  </g>
</svg>
